<svg width="21" height="18" viewBox="0 0 21 18" fill="none" xmlns="http://www.w3.org/2000/svg">
<path d="M16.0752 10.3354C10.5569 10.3354 5.30285 10.3354 0 10.3354C0 9.43496 0 8.63415 0 7.72155C5.26626 7.72155 10.5224 7.72155 15.7764 7.72155C14.7317 6.74594 13.6524 5.90041 12.7886 4.87398C12.2236 4.20325 11.9004 3.29472 11.6016 2.44512C11.3191 1.64431 11.5772 0.99187 12.4898 0.711382C13.126 0.51626 13.7419 0.260163 14.4533 0C14.5508 0.577236 14.6037 1.07724 14.7215 1.56301C15.3679 4.24797 17 6.17073 19.498 7.23984C20.5935 7.70935 20.2663 8.47561 20.3435 9.22155C20.4207 9.95732 20.2459 10.4167 19.4675 10.7724C16.6951 12.0427 14.9898 14.1809 14.5976 17.2703C14.5732 17.4654 14.5102 17.6565 14.4289 18C13.5955 17.6809 12.7317 17.5122 12.0874 17.0406C11.7317 16.7805 11.5285 15.9654 11.6341 15.4858C12.0386 13.6606 13.1748 12.2866 14.6809 11.2114C15.0508 10.9431 15.4533 10.7236 16.0752 10.3354Z" fill="black"/>
</svg>
